<svg xmlns="http://www.w3.org/2000/svg" viewBox="0 0 64 64">
  <rect width="64" height="64" rx="16" fill="#f5eddd"/>
  <path d="M10 33h44v13H10z" fill="#a85b32" stroke="#24452f" stroke-width="2.5"/>
  <path d="M15 46v11M49 46v11" stroke="#24452f" stroke-width="3" stroke-linecap="round"/>
  <path d="M14 33c2-10 9-17 18-17s16 7 18 17" fill="#d8c39b" stroke="#24452f" stroke-width="2.5"/>
  <path d="M24 24c-5-4-3-10 1-12 4 3 5 8 1 13M38 24c5-4 3-10-1-12-4 3-5 8-1 13M31 23c-1-7 2-11 5-12 2 5 1 10-3 14" fill="#638257" stroke="#24452f" stroke-width="2" stroke-linejoin="round"/>
</svg>
